<svg width="140" height="140" viewBox="0 0 140 140" fill="none" xmlns="http://www.w3.org/2000/svg">
<path d="M122.5 58.3333V23.3333C122.5 16.9166 117.25 11.6666 110.833 11.6666H17.4999C11.0833 11.6666 5.89159 16.9166 5.89159 23.3333L5.83325 93.3333C5.83325 99.75 11.0833 105 17.4999 105H81.6666V75.8333C81.6666 66.15 89.4832 58.3333 99.1666 58.3333H122.5ZM64.1666 64.1666L17.4999 35V23.3333L64.1666 52.5L110.833 23.3333V35L64.1666 64.1666Z" fill="black"/>
<path d="M122.5 81.6666V105C122.5 111.417 117.25 116.667 110.833 116.667C104.417 116.667 99.1667 111.417 99.1667 105V78.75C99.1667 77.1166 100.45 75.8333 102.083 75.8333C103.717 75.8333 105 77.1166 105 78.75V105H116.667V78.75C116.667 70.7 110.133 64.1666 102.083 64.1666C94.0333 64.1666 87.5 70.7 87.5 78.75V105C87.5 117.892 97.9417 128.333 110.833 128.333C123.725 128.333 134.167 117.892 134.167 105V81.6666H122.5Z" fill="black"/>
</svg>
