<svg width="90" height="90" viewBox="0 0 90 90" fill="none" xmlns="http://www.w3.org/2000/svg">
<path d="M67.5 41.25V48.75H82.5V41.25H67.5ZM60 66.0375C63.6 68.7 68.2875 72.225 72 75C73.5 73.0125 75 70.9875 76.5 69C72.7875 66.225 68.1 62.7 64.5 60C63 62.025 61.5 64.05 60 66.0375ZM76.5 21C75 19.0125 73.5 16.9875 72 15C68.2875 17.775 63.6 21.3 60 24C61.5 25.9875 63 28.0125 64.5 30C68.1 27.3 72.7875 23.8125 76.5 21ZM15 33.75C10.875 33.75 7.5 37.125 7.5 41.25V48.75C7.5 52.875 10.875 56.25 15 56.25H18.75V71.25H26.25V56.25H30L48.75 67.5V22.5L30 33.75H15ZM58.125 45C58.125 40.0125 55.95 35.5125 52.5 32.4375V57.525C55.95 54.4875 58.125 49.9875 58.125 45Z" fill="black"/>
</svg>
