<svg width="140" height="140" viewBox="0 0 140 140" fill="none" xmlns="http://www.w3.org/2000/svg">
<path d="M52.4999 87.5C36.9249 87.5 5.83325 95.3167 5.83325 110.833V122.5H99.1666V110.833C99.1666 95.3167 68.0749 87.5 52.4999 87.5Z" fill="black"/>
<path d="M128.917 39.9C128.975 39.2583 129.033 38.6167 129.033 37.9167C129.033 37.2167 128.975 36.575 128.858 35.9333L133.175 32.55C133.583 32.2583 133.642 31.675 133.408 31.2667L129.325 24.2083C129.092 23.7417 128.508 23.625 128.1 23.7417L123.083 25.7833C122.033 24.9667 120.867 24.325 119.642 23.8L118.883 18.375C118.767 17.85 118.358 17.5 117.833 17.5H109.667C109.142 17.5 108.733 17.85 108.675 18.375L107.917 23.8C106.692 24.325 105.525 25.025 104.475 25.7833L99.3999 23.7417C98.9332 23.5667 98.4082 23.7417 98.1749 24.2083L94.0916 31.2667C93.8582 31.7333 93.9166 32.2583 94.3249 32.55L98.6416 35.9333C98.5249 36.575 98.4666 37.275 98.4666 37.9167C98.4666 38.5583 98.5249 39.2583 98.6416 39.9L94.3249 43.2833C93.9166 43.575 93.8582 44.1583 94.0916 44.5667L98.1749 51.625C98.4082 52.0917 98.9916 52.2083 99.3999 52.0917L104.475 50.05C105.525 50.8667 106.692 51.5083 107.917 52.0333L108.675 57.4583C108.733 57.9833 109.142 58.3333 109.667 58.3333H117.833C118.358 58.3333 118.767 57.9833 118.825 57.4583L119.583 52.0333C120.808 51.5083 121.975 50.8083 123.025 50.05L128.1 52.0917C128.567 52.2667 129.092 52.0917 129.325 51.625L133.408 44.5667C133.642 44.1 133.583 43.575 133.175 43.2833L128.917 39.9ZM113.75 45.2083C109.725 45.2083 106.458 41.9417 106.458 37.9167C106.458 33.8917 109.725 30.625 113.75 30.625C117.775 30.625 121.042 33.8917 121.042 37.9167C121.042 41.9417 117.775 45.2083 113.75 45.2083Z" fill="black"/>
<path d="M116.2 68.1333L113.283 63.0583C113.108 62.7083 112.7 62.5916 112.408 62.7083L108.792 64.1666C108.033 63.5833 107.217 63.1166 106.342 62.7666L105.817 58.9166C105.7 58.5666 105.35 58.3333 105 58.3333H99.1666C98.8166 58.3333 98.525 58.5666 98.4666 58.975L97.9416 62.825C97.0666 63.175 96.25 63.7 95.4916 64.225L91.875 62.7666C91.525 62.65 91.175 62.7666 91 63.1166L88.0833 68.1916C87.9083 68.5416 87.9666 68.8916 88.2583 69.125L91.35 71.5166C91.2916 71.9833 91.2333 72.45 91.2333 72.9166C91.2333 73.3833 91.2916 73.9083 91.35 74.3166L88.2583 76.7083C87.9666 76.9416 87.9083 77.35 88.0833 77.6416L91 82.7166C91.175 83.0666 91.5833 83.1833 91.875 83.0666L95.4916 81.6083C96.25 82.1916 97.0666 82.6583 97.9416 83.0083L98.4666 86.8583C98.525 87.2666 98.8166 87.5 99.1666 87.5H105C105.35 87.5 105.7 87.2666 105.7 86.8583L106.225 83.0083C107.1 82.6583 107.917 82.1333 108.675 81.6083L112.292 83.0666C112.642 83.1833 112.992 83.0666 113.167 82.7166L116.083 77.6416C116.258 77.2916 116.2 76.9416 115.908 76.7083L112.875 74.3166C112.933 73.85 112.992 73.3833 112.992 72.9166C112.992 72.45 112.933 71.925 112.875 71.5166L115.967 69.125C116.258 68.8916 116.317 68.4833 116.2 68.1333ZM102.083 77.7583C99.4 77.7583 97.2416 75.5416 97.2416 72.9166C97.2416 70.2333 99.4583 68.075 102.083 68.075C104.708 68.075 106.925 70.2916 106.925 72.9166C106.925 75.6 104.767 77.7583 102.083 77.7583Z" fill="black"/>
<path d="M27.6498 52.5H77.4082C78.9832 52.5 80.2665 51.2166 80.2665 49.6416V49.525C80.2665 47.95 78.9832 46.6666 77.4082 46.6666H75.8332C75.8332 38.0333 71.1082 30.625 64.1665 26.5416V32.0833C64.1665 33.7166 62.8832 35 61.2498 35C59.6165 35 58.3332 33.7166 58.3332 32.0833V24.15C56.4665 23.6833 54.5415 23.3333 52.4998 23.3333C50.4582 23.3333 48.5332 23.6833 46.6665 24.15V32.0833C46.6665 33.7166 45.3832 35 43.7498 35C42.1165 35 40.8332 33.7166 40.8332 32.0833V26.5416C33.8915 30.625 29.1665 38.0333 29.1665 46.6666H27.6498C26.0748 46.6666 24.7915 47.95 24.7915 49.525V49.7C24.7915 51.2166 26.0748 52.5 27.6498 52.5Z" fill="black"/>
<path d="M52.4998 75.8333C63.3498 75.8333 72.3915 68.3666 75.0165 58.3333H29.9832C32.6082 68.3666 41.6498 75.8333 52.4998 75.8333Z" fill="black"/>
</svg>
