<svg width="140" height="133" viewBox="0 0 140 133" fill="none" xmlns="http://www.w3.org/2000/svg">
<g clip-path="url(#clip0)">
<path fill-rule="evenodd" clip-rule="evenodd" d="M9.43362 0H130.566C135.773 0 140 4.24967 140 9.43359V103.553C140 108.726 135.75 112.975 130.566 112.975H120.575C121.999 110.138 123.206 107.176 124.152 104.089H129.507C130.236 104.089 130.863 103.804 131.353 103.325C131.842 102.847 132.116 102.209 132.116 101.479V23.4587H132.173H8.23733V101.479C8.23733 102.197 8.52216 102.835 9.00067 103.325C9.49058 103.815 10.1286 104.089 10.8464 104.089H15.848C16.7936 107.176 17.9899 110.138 19.4255 112.975H9.43362C4.2497 112.975 2.29166e-05 108.726 2.29166e-05 103.553V9.43359C-0.0113703 4.24967 4.22691 0 9.43362 0ZM93.6524 33.2682C90.9977 65.0212 54.6533 44.1488 40.8447 70.6038C38.8965 74.9105 37.5863 78.9095 36.9711 82.5667C35.9571 83.82 35.0228 85.1644 34.1797 86.5999C29.9642 93.903 29.1211 102.22 31.1377 109.762C33.1657 117.305 38.0648 124.084 45.3679 128.288C52.6709 132.503 60.9766 133.346 68.5303 131.33C76.0726 129.313 82.8516 124.414 87.0557 117.111C88.9242 113.875 90.1319 110.457 90.7243 106.994C95.0196 104.487 98.8135 100.955 101.707 96.2728C106.618 84.8796 97.6742 75.7992 109.922 67.7783C102.345 63.973 97.7426 67.9036 93.322 75.6055C88.5368 85.9847 70.6153 73.6914 87.4203 67.2998C101.833 61.8425 100.511 44.9235 93.6524 33.2682ZM59.9626 101.776C60.0537 101.776 60.1449 101.776 60.236 101.787L70.752 93.9144C71.9597 93.0029 73.7028 93.2422 74.6143 94.4613C75.5257 95.6804 75.2865 97.4121 74.0674 98.335L63.6654 106.139C63.3692 107.917 61.8311 109.284 59.9626 109.284C57.9004 109.284 56.2256 107.598 56.2256 105.535C56.2256 105.148 56.294 104.772 56.3965 104.396L45.6869 96.1247C45.0147 95.6006 44.8893 94.6322 45.4134 93.96C45.9375 93.2764 46.9059 93.151 47.5781 93.6751L58.4701 102.095C58.9258 101.89 59.4271 101.776 59.9626 101.776ZM73.6231 79.3425C86.5772 86.8164 90.6332 101.924 83.1478 114.889C75.6739 127.843 60.555 131.899 47.6009 124.425C34.6468 116.952 30.6022 101.833 38.0762 88.8786C45.5615 75.9131 60.669 71.8685 73.6231 79.3425ZM121.589 7.63346C124.163 7.63346 126.248 9.71842 126.248 12.2933C126.248 14.8682 124.152 16.9531 121.589 16.9531C119.025 16.9531 116.929 14.8682 116.929 12.2933C116.929 9.71842 119.002 7.63346 121.589 7.63346ZM90.0179 7.63346C92.5928 7.63346 94.6778 9.71842 94.6778 12.2933C94.6778 14.8682 92.5928 16.9531 90.0179 16.9531C87.4431 16.9531 85.3581 14.8682 85.3581 12.2933C85.3467 9.71842 87.4317 7.63346 90.0179 7.63346ZM105.798 7.63346C108.372 7.63346 110.457 9.71842 110.457 12.2933C110.457 14.8682 108.372 16.9531 105.798 16.9531C103.223 16.9531 101.138 14.8682 101.138 12.2933C101.149 9.71842 103.223 7.63346 105.798 7.63346Z" fill="black"/>
</g>
<defs>
<clipPath id="clip0">
<rect width="140" height="132.401" fill="white"/>
</clipPath>
</defs>
</svg>
