<svg width="140" height="140" viewBox="0 0 140 140" fill="none" xmlns="http://www.w3.org/2000/svg">
<path d="M110.833 81.6667V35C110.833 28.5834 105.583 23.3334 99.1666 23.3334H17.4999C11.0833 23.3334 5.83325 28.5834 5.83325 35V81.6667C5.83325 88.0834 11.0833 93.3334 17.4999 93.3334H99.1666C105.583 93.3334 110.833 88.0834 110.833 81.6667ZM58.3332 75.8334C48.6499 75.8334 40.8333 68.0167 40.8333 58.3334C40.8333 48.65 48.6499 40.8334 58.3332 40.8334C68.0166 40.8334 75.8332 48.65 75.8332 58.3334C75.8332 68.0167 68.0166 75.8334 58.3332 75.8334ZM134.167 40.8334V105C134.167 111.417 128.917 116.667 122.5 116.667H23.3333V105H122.5V40.8334H134.167Z" fill="black"/>
</svg>
